<?xml version="1.0" encoding="iso-8859-1"?>
<!-- Generator: Adobe Illustrator 18.0.0, SVG Export Plug-In . SVG Version: 6.00 Build 0)  -->
<!DOCTYPE svg PUBLIC "-//W3C//DTD SVG 1.1//EN" "http://www.w3.org/Graphics/SVG/1.1/DTD/svg11.dtd">
<svg version="1.1" id="Capa_1" xmlns="http://www.w3.org/2000/svg" xmlns:xlink="http://www.w3.org/1999/xlink" x="0px" y="0px"
	 viewBox="0 0 457.01 457.01" style="enable-background:new 0 0 457.01 457.01;" xml:space="preserve">
<g>
	<path d="M423.72,158.389v-55.977h-70.602L228.5,3.598l-124.618,98.813H33.29v55.977L0,184.789v268.623h457.01V184.789
		L423.72,158.389z M158.567,317.293L14,431.928V202.659L158.567,317.293z M228.505,279.703l201.41,159.709H27.094L228.505,279.703z
		 M298.442,317.293L443.01,202.658v229.27L298.442,317.293z M438.746,188.173l-15.026,11.915v-23.83L438.746,188.173z M228.5,21.466
		l102.086,80.946H126.415L228.5,21.466z M409.72,116.412v94.777l-122.544,97.171l-58.671-46.524l-58.672,46.524L47.29,211.189
		v-94.778H409.72z M33.29,200.088l-15.026-11.915l15.026-11.916V200.088z"/>
	<rect x="92.505" y="168.412" width="272" height="14"/>
	<rect x="92.505" y="208.412" width="272" height="14"/>
</g>
<g>
</g>
<g>
</g>
<g>
</g>
<g>
</g>
<g>
</g>
<g>
</g>
<g>
</g>
<g>
</g>
<g>
</g>
<g>
</g>
<g>
</g>
<g>
</g>
<g>
</g>
<g>
</g>
<g>
</g>
</svg>
